<?xml version="1.0" encoding="utf-8"?>
<!-- Generator: Adobe Illustrator 20.1.0, SVG Export Plug-In . SVG Version: 6.00 Build 0)  -->
<svg version="1.1" id="Capa_1" xmlns="http://www.w3.org/2000/svg" xmlns:xlink="http://www.w3.org/1999/xlink" x="0px" y="0px"
	 viewBox="0 0 523 512" style="enable-background:new 0 0 523 512;" xml:space="preserve">
<style type="text/css">
	.st0{fill:none;stroke:#FFFFFF;stroke-width:4;stroke-miterlimit:10;}
</style>
<g>
	<g>
		<path class="st0" d="M431.6,5c-30.2,0-54.9,24.6-54.9,54.9s24.6,54.9,54.9,54.9s54.9-24.6,54.9-54.9S461.8,5,431.6,5z M431.6,78.1
			c-10.1,0-18.3-8.2-18.3-18.3s8.2-18.3,18.3-18.3s18.3,8.2,18.3,18.3S441.6,78.1,431.6,78.1z"/>
	</g>
</g>
<g>
	<g>
		<path class="st0" d="M267,105.7h18.3c10.1,0,18.3-8.2,18.3-18.3V50.9c0-10.1-8.2-18.3-18.3-18.3H267
			C145.8,32.6,47.6,130.8,47.6,252v36.6C47.6,409.8,145.8,508,267,508h18.3c10.1,0,18.3-8.2,18.3-18.3v-36.6
			c0-10.1-8.2-18.3-18.3-18.3H267c-80.8,0-146.3-65.5-146.3-146.3V252C120.7,171.2,186.2,105.7,267,105.7z"/>
	</g>
</g>
</svg>
