<?xml version="1.0" encoding="utf-8"?>
<!-- Generator: Adobe Illustrator 20.1.0, SVG Export Plug-In . SVG Version: 6.00 Build 0)  -->
<svg version="1.1" id="Capa_1" xmlns="http://www.w3.org/2000/svg" xmlns:xlink="http://www.w3.org/1999/xlink" x="0px" y="0px"
	 viewBox="0 0 571 512" style="enable-background:new 0 0 571 512;" xml:space="preserve">
<style type="text/css">
	.st0{fill:none;stroke:#FFFFFF;stroke-width:4;stroke-miterlimit:10;}
</style>
<g>
	<path class="st0" d="M554.5,193.2l-40.1-25.8l-154.7,55l-28.9-17.1h-73.2l2-9.5h31.4l-2-26h-88.8v26h31.4v9.5h-81.7l-53.9-31
		L55,217l87.3,113l0.8-0.6l7,14.5h188.8l174.8-146.1l26.8,17.3L554.5,193.2z M89.3,218.8l11.5-12l42.3,24.4v57.2L89.3,218.8z
		 M322.7,317.9H169.1v-86.7h154.6l33.3,19.7l87.8-31.2L322.7,317.9z M567,269c0,10.8-8.7,19.5-19.5,19.5c-10.8,0-19.5-8.7-19.5-19.5
		c0-10.8,19.5-45,19.5-45S567,258.2,567,269z"/>
</g>
</svg>
