<?xml version="1.0" encoding="iso-8859-1"?>
<!-- Generator: Adobe Illustrator 19.0.0, SVG Export Plug-In . SVG Version: 6.00 Build 0)  -->
<svg xmlns="http://www.w3.org/2000/svg" xmlns:xlink="http://www.w3.org/1999/xlink" version="1.1" id="Layer_1" x="0px" y="0px" viewBox="0 0 510.847 510.847" style="enable-background:new 0 0 510.847 510.847;" xml:space="preserve" width="512px" height="512px">
<g transform="translate(1 1)">
	<g>
		<g>
			<path d="M267.59,195.669c-27.698,0-50.361,22.662-50.361,50.361s22.662,50.361,50.361,50.361s50.361-22.662,50.361-50.361     S295.289,195.669,267.59,195.669z M267.59,279.604c-18.466,0-33.574-15.108-33.574-33.574s15.108-33.574,33.574-33.574     s33.574,15.108,33.574,33.574S286.056,279.604,267.59,279.604z" fill="#FFFFFF"/>
			<path d="M166.03,95.787c0,0.839,0.839,0.839,0.839,0.839c0,0.839,0,1.679,0,2.518c0,0.423,0.043,0.846,0.109,1.266     c-0.064,0.969-0.109,1.943-0.109,2.931c0,23.502,18.466,41.967,41.967,41.967c10.007,0,19.093-3.357,26.237-9.015l0.622,0.622     c4.197,3.357,9.233,1.679,11.751-1.679c3.348-4.186,1.687-9.205-1.653-11.73c3.203-5.955,5.01-12.814,5.01-20.166     c0-23.502-18.466-41.967-41.967-41.967c-15.175,0-28.241,7.705-35.601,19.487c-0.163-0.061-0.327-0.128-0.49-0.182     c-4.197-2.518-9.233,0-10.911,4.197C159.315,89.073,161.833,94.109,166.03,95.787z M208.836,78.161     c14.269,0,25.18,10.911,25.18,25.18s-10.911,25.18-25.18,25.18c-3.291,0-6.4-0.587-9.241-1.655     c-2.547-1.205-4.631-2.144-6.707-4.221c-0.647-0.647-1.358-1.135-2.106-1.483c-4.443-4.503-7.126-10.749-7.126-17.822     C183.656,89.073,194.567,78.161,208.836,78.161z" fill="#FFFFFF"/>
			<path d="M445.531,390.397c-4.197,0.839-7.554,4.197-7.554,9.233c0,0.839,0,2.518,0,3.357c0,4.197-0.839,7.554-1.679,10.911     c-1.679,4.197,1.679,9.233,5.875,10.072c0,0,0.839,0,1.679,0c4.197,0,7.554-2.518,9.233-6.715     c0.839-4.197,1.679-9.233,1.679-15.108c0-1.679,0-2.518,0-4.197C453.925,393.755,449.728,390.397,445.531,390.397z" fill="#FFFFFF"/>
			<path d="M111.472,85.715h0.839c4.197-0.839,9.233-0.839,15.108,0c4.197,0.839,8.393-3.357,9.233-7.554     c0-4.197-3.357-8.393-7.554-9.233c-6.715-0.839-13.43-0.839-19.305,0c-4.197,0-7.554,5.036-6.715,9.233     S107.275,85.715,111.472,85.715z" fill="#FFFFFF"/>
			<path d="M365.793,259.46c1.679,2.518,4.197,3.357,6.715,3.357c1.679,0,3.357-0.839,4.197-2.518     c4.197-2.518,4.197-8.393,1.679-11.751c-3.357-4.197-6.715-9.233-10.911-13.43c-2.518-3.357-8.393-4.197-11.751-0.839     c-3.357,2.518-4.197,8.393-0.839,11.751C359.079,251.066,362.436,255.263,365.793,259.46z" fill="#FFFFFF"/>
			<path d="M172.744,284.64c3.357-2.518,4.197-8.393,0.839-11.751c-3.357-5.036-7.554-9.233-10.911-13.43     c-2.518-3.357-8.393-3.357-11.751-0.839s-3.357,8.393-0.839,11.751c3.357,4.197,6.715,9.233,10.911,13.43     c1.679,2.518,4.197,3.357,6.715,3.357C169.387,287.158,171.066,286.319,172.744,284.64z" fill="#FFFFFF"/>
			<path d="M411.118,432.365c-4.197,0-9.233,0-15.108-0.839c-4.197,0-8.393,3.357-9.233,7.554c0,4.197,3.357,8.393,7.554,9.233     c4.197,0.839,8.393,0.839,12.59,0.839c2.518,0,4.197,0,5.875,0c5.036-0.839,8.393-5.036,7.554-9.233     C419.511,434.883,415.315,432.365,411.118,432.365z" fill="#FFFFFF"/>
			<path d="M81.256,130.201c5.875-0.839,9.233-4.197,8.393-8.393c0-1.679,0-4.197,0-5.875c0-3.357,0-6.715,0.839-9.233     c0.839-5.036-2.518-9.233-6.715-10.072c-5.036-0.839-9.233,2.518-10.072,6.715c-0.839,3.357-0.839,7.554-0.839,11.751     c0,2.518,0,5.036,0,7.554C73.702,126.843,77.059,130.201,81.256,130.201z" fill="#FFFFFF"/>
			<path d="M282.698,173.847c1.679,0.839,4.197,1.679,5.875,1.679c2.518,0,5.036-0.839,6.715-2.518     c3.357-3.357,2.518-8.393-0.839-11.751c-4.197-3.357-9.233-7.554-13.43-10.911c-3.357-3.357-8.393-2.518-11.751,0.839     s-2.518,8.393,0.839,11.751C274.305,166.292,278.502,169.65,282.698,173.847z" fill="#FFFFFF"/>
			<path d="M84.613,166.292c2.518,5.036,5.036,10.072,7.554,15.948c0.345,0.691,0.735,1.293,1.152,1.841     c-3.656,1.065-7.19,2.13-10.385,3.195c-4.197,1.679-6.715,6.715-5.036,10.911c0.839,3.357,4.197,5.875,7.554,5.875     c0.839,0,1.679,0,2.518-0.839c5.036-1.679,10.072-3.357,15.948-5.036c5.036-0.839,7.554-5.875,5.875-10.072     c-0.434-2.603-1.993-4.526-3.973-5.551c1.397-2.261,1.673-5.235,0.616-7.878c-2.518-5.036-5.036-10.072-6.715-15.108     c-1.679-4.197-6.715-5.875-10.911-4.197C84.613,157.06,82.934,162.096,84.613,166.292z" fill="#FFFFFF"/>
			<path d="M338.934,215.814c3.357-3.357,3.357-8.393,0-11.751c-3.357-3.357-6.715-6.715-10.072-10.072l-2.518-2.518     c-3.357-3.357-8.393-3.357-11.751,0c-3.357,3.357-3.357,8.393,0,11.751l2.518,2.518c3.357,2.518,5.875,5.875,9.233,9.233     c1.679,1.679,3.357,2.518,5.875,2.518C334.738,217.492,336.416,216.653,338.934,215.814z" fill="#FFFFFF"/>
			<path d="M437.977,365.217c5.036-1.679,6.715-6.715,5.036-10.911c-1.679-5.036-4.197-10.072-6.715-15.948     c-1.679-4.197-6.715-5.875-10.911-4.197c-4.197,1.679-5.875,6.715-4.197,10.911c2.518,5.036,5.036,10.072,6.715,15.108     c0.839,3.357,4.197,5.036,7.554,5.036C436.298,365.217,437.138,364.378,437.977,365.217z" fill="#FFFFFF"/>
			<path d="M358.239,419.774c-5.036-1.679-10.072-4.197-15.108-6.715c-3.357-2.518-8.393,0-10.911,3.357     c-2.518,3.357-0.839,9.233,3.357,10.911c5.036,2.518,10.911,5.036,15.948,7.554c0.839,0.839,2.518,0.839,3.357,0.839     c2.518,0,5.875-1.679,7.554-5.036C364.115,426.489,362.436,421.453,358.239,419.774z" fill="#FFFFFF"/>
			<path d="M116.508,209.938c-4.197,2.518-5.036,7.554-2.518,11.751c3.357,4.197,6.715,9.233,10.072,14.269     c1.679,1.679,4.197,3.357,6.715,3.357c1.679,0,3.357-0.839,4.197-0.839c4.197-2.518,5.036-7.554,2.518-11.751     c-3.357-5.036-5.875-9.233-9.233-14.269C125.741,208.26,120.705,207.42,116.508,209.938z" fill="#FFFFFF"/>
			<path d="M210.515,312.338c-2.518-2.518-5.036-5.036-7.554-7.554c-3.357-3.357-8.393-3.357-11.751,0     c-3.357,3.357-3.357,8.393,0,11.751c2.518,2.518,5.036,5.036,7.554,7.554l4.197,4.197c1.679,1.679,3.357,2.518,5.875,2.518     c1.679,0,4.197-0.839,5.875-2.518c3.357-3.357,3.357-8.393,0-11.751L210.515,312.338z" fill="#FFFFFF"/>
			<path d="M307.879,391.237c-5.036-2.518-9.233-5.875-14.269-9.233c-4.197-3.357-9.233-2.518-11.751,1.679     c-3.357,4.197-2.518,9.233,1.679,11.751c5.036,3.357,9.233,6.715,14.269,10.072c0.839,0.839,2.518,1.679,4.197,1.679     c2.518,0,5.036-1.679,8.393-4.197C312.915,398.791,312.075,393.755,307.879,391.237z" fill="#FFFFFF"/>
			<path d="M258.357,356.824c-4.197-3.357-8.393-7.554-12.59-10.911c-3.357-3.357-8.393-2.518-11.751,0.839     c-3.357,3.357-2.518,8.393,0.839,11.751c4.197,3.357,9.233,7.554,13.43,10.911c1.679,0.839,3.357,1.679,5.036,1.679     c2.518,0,5.036-0.839,5.875-2.518C262.554,365.217,261.715,359.342,258.357,356.824z" fill="#FFFFFF"/>
			<path d="M393.492,281.283c-4.197,2.518-5.036,7.554-2.518,11.751c3.357,5.036,5.875,9.233,9.233,14.269     c0.839,2.518,4.197,4.197,6.715,4.197c1.679,0,3.357,0,5.036-1.679c4.197-2.518,5.036-7.554,2.518-11.751     s-5.875-9.233-9.233-14.269C402.725,279.604,397.689,278.764,393.492,281.283z" fill="#FFFFFF"/>
			<path d="M141.156,319.971c0.347-2.208,0.533-4.475,0.533-6.793c0-23.502-18.466-41.967-41.967-41.967     c-16.832,0-31.078,9.474-37.81,23.485c-3.357-1.647-8.36,0.033-10.033,4.213c-1.679,4.197,0,9.233,4.197,10.911     c0.589,0.196,1.178,0.441,1.766,0.708c-0.052,0.876-0.088,1.758-0.088,2.65c0,23.502,18.466,41.967,41.967,41.967     c15.307,0,28.473-7.837,35.796-19.794c0.692,0.129,1.359,0.283,1.974,0.489c0.839,0,0.839,0,1.679,0     c4.197,0,7.554-2.518,7.554-5.875C147.543,325.054,145.165,320.951,141.156,319.971z M99.721,338.358     c-14.269,0-25.18-10.911-25.18-25.18c0-13.657,9.998-24.231,23.365-25.113c1.027,0.494,2.204,0.772,3.494,0.772     c4.197,0,7.554,1.679,10.911,3.357c0.6,0.6,1.632,0.769,2.783,0.817c6.023,4.532,9.807,11.766,9.807,20.166     c0,0.691-0.033,1.371-0.083,2.045c-0.345,0.682-0.606,1.403-0.756,2.152c0,1.679-0.839,4.197-1.679,5.875l-1.281,3.522     C116.719,333.818,108.921,338.358,99.721,338.358z" fill="#FFFFFF"/>
			<path d="M380.902,190.633c5.875,0.839,11.751,1.679,16.787,3.357c0,0,0.839,0,1.679,0c4.197,0,7.554-2.518,7.554-5.875     c1.679-4.197-1.679-9.233-5.875-10.072c-5.036-1.679-10.911-3.357-16.787-4.197c-5.036-0.839-9.233,2.518-10.072,6.715     C373.348,185.597,376.705,189.794,380.902,190.633z" fill="#FFFFFF"/>
			<path d="M509.321,241.833c-2.518-6.715-5.875-11.751-10.911-17.626c-3.357-3.357-8.393-4.197-11.751-0.839     c-3.357,3.357-4.197,8.393-0.839,11.751c3.357,4.197,5.875,7.554,7.554,11.751c0.839,3.357,4.197,5.875,7.554,5.875     c0.839,0,1.679-0.839,3.357,0C508.482,251.066,511,246.03,509.321,241.833z" fill="#FFFFFF"/>
			<path d="M235.695,171.328c-0.839-4.197-4.197-8.393-9.233-7.554c-5.875,0-11.751,0-17.626,0.839     c-4.197,0.839-7.554,5.036-7.554,9.233s4.197,7.554,8.393,7.554c6.715-0.839,11.751-0.839,18.466-0.839     C232.338,179.722,235.695,176.365,235.695,171.328z" fill="#FFFFFF"/>
			<path d="M483.302,276.246c-3.357,3.357-7.554,6.715-12.59,10.072c-4.197,2.518-5.036,7.554-2.518,11.751     c1.679,1.679,4.197,3.357,6.715,3.357c1.679,0,3.357,0,5.875-1.679c5.036-4.197,10.072-7.554,14.269-11.751     c3.357-3.357,3.357-8.393,0-11.751C491.695,272.889,486.659,272.889,483.302,276.246z" fill="#FFFFFF"/>
			<path d="M150.082,188.955c0.839,0,0.839,0,1.679-0.839c5.875-0.839,10.911-1.679,16.787-2.518c4.197,0,7.554-5.036,6.715-9.233     c0-4.197-5.036-7.554-9.233-6.715c-5.875,0.839-11.751,1.679-17.626,2.518c-4.197,0.839-7.554,5.875-6.715,10.072     S145.885,188.955,150.082,188.955z" fill="#FFFFFF"/>
			<path d="M325.505,178.883c5.875,0,10.911,0.839,16.787,1.679h0.839c4.197,0,8.393-3.357,9.233-7.554     c0-4.197-3.357-8.393-7.554-9.233c-5.875-0.839-11.751-0.839-17.626-1.679c-5.036-0.839-8.393,3.357-9.233,7.554     C317.112,174.686,321.308,178.043,325.505,178.883z" fill="#FFFFFF"/>
			<path d="M302.003,347.591c4.197-0.839,7.554-4.197,7.554-9.233c-0.839-4.197-4.197-8.393-9.233-7.554     c-5.036,0-10.911,0.839-16.787,0.839c-4.197,0.839-7.554,4.197-7.554,9.233c0,4.197,4.197,7.554,8.393,7.554     C291.092,347.591,296.967,347.591,302.003,347.591z" fill="#FFFFFF"/>
			<path d="M386.777,326.607c-0.839-5.036-5.875-7.554-10.072-6.715c-5.875,1.679-10.911,2.518-16.787,3.357     c-4.197,0-7.554,5.036-6.715,9.233c0.839,3.357,4.197,6.715,8.393,6.715c0.839,0,0.839,0,0.839,0.839     c5.875-0.839,11.751-2.518,17.626-3.357C385.098,335.84,387.616,330.804,386.777,326.607z" fill="#FFFFFF"/>
			<path d="M192.049,338.358c-5.875-0.839-10.911-0.839-16.787-1.679c-4.197,0-8.393,3.357-9.233,7.554     c0,4.197,3.357,8.393,7.554,9.233c5.875,0.839,11.751,0.839,18.466,1.679c5.036,0,8.393-3.357,7.554-7.554     C200.443,342.555,196.246,338.358,192.049,338.358z" fill="#FFFFFF"/>
			<path d="M460.639,196.509c-5.875-2.518-10.911-4.197-16.787-6.715c-4.197-1.679-9.233,0.839-10.911,5.036     s0.839,9.233,5.036,10.911c5.036,2.518,10.072,4.197,15.108,6.715c0.839,0.839,2.518,0.839,3.357,0.839     c3.357,0,5.875-1.679,8.393-5.875C466.515,203.224,464.836,198.187,460.639,196.509z" fill="#FFFFFF"/>
			<path d="M25.02,259.46c-0.839-4.197-5.875-6.715-10.072-5.875c-5.036,0.839-7.554,5.875-6.715,10.072     c1.679,6.715,4.197,12.59,9.233,18.466c1.679,2.518,4.197,3.357,6.715,3.357c2.518,0,4.197-0.839,5.036-2.518     c4.197-2.518,4.197-8.393,1.679-11.751C28.377,267.014,25.859,263.656,25.02,259.46z" fill="#FFFFFF"/>
			<path d="M32.574,232.601c1.679,0,3.357-0.839,6.715-1.679c3.357-3.357,7.554-5.875,12.59-9.233     c3.357-2.518,5.036-7.554,2.518-11.751c-2.518-3.357-7.554-5.036-11.751-2.518c-5.875,3.357-10.911,6.715-15.108,10.911     c-3.357,3.357-4.197,8.393-0.839,11.751C27.538,231.761,30.056,232.601,32.574,232.601z" fill="#FFFFFF"/>
			<path d="M15.787,162.096c5.036,0,8.393-3.357,8.393-8.393s-3.357-8.393-8.393-8.393c-5.036,0-8.393,3.357-8.393,8.393     S10.751,162.096,15.787,162.096z" fill="#FFFFFF"/>
			<path d="M208.836,422.292c-5.036,0-8.393,3.357-8.393,8.393c0,5.036,3.357,8.393,8.393,8.393s8.393-3.357,8.393-8.393     C217.229,425.65,213.872,422.292,208.836,422.292z" fill="#FFFFFF"/>
			<path d="M334.738,111.735c5.036,0,8.393-3.357,8.393-8.393s-3.357-8.393-8.393-8.393c-5.036,0-8.393,3.357-8.393,8.393     S329.702,111.735,334.738,111.735z" fill="#FFFFFF"/>
			<path d="M410.279,61.374h13.43l20.144,20.144v13.43c0,5.036,3.357,8.393,8.393,8.393c5.036,0,8.393-3.357,8.393-8.393v-13.43     l20.144-20.144h13.429c5.036,0,8.393-3.357,8.393-8.393s-3.357-8.393-8.393-8.393h-13.429l-20.144-20.144v-13.43     c0-5.036-3.357-8.393-8.393-8.393c-5.036,0-8.393,3.357-8.393,8.393v13.43l-20.144,20.144h-13.43     c-5.036,0-8.393,3.357-8.393,8.393S405.243,61.374,410.279,61.374z M452.246,39.551l13.43,13.43l-13.43,13.43l-13.43-13.43     L452.246,39.551z" fill="#FFFFFF"/>
			<path d="M74.541,455.866c-14.269,0-25.18-10.911-25.18-25.18c0-5.036-3.357-8.393-8.393-8.393s-8.393,3.357-8.393,8.393     c0,14.269-10.911,25.18-25.18,25.18c-5.036,0-8.393,3.357-8.393,8.393s3.357,8.393,8.393,8.393     c14.269,0,25.18,10.911,25.18,25.18c0,5.036,3.357,8.393,8.393,8.393s8.393-3.357,8.393-8.393c0-14.269,10.911-25.18,25.18-25.18     c5.036,0,8.393-3.357,8.393-8.393S79.577,455.866,74.541,455.866z M40.967,472.653c-2.518-3.357-5.036-5.875-8.393-8.393     c3.357-2.518,5.875-5.036,8.393-8.393c2.518,3.357,5.036,5.875,8.393,8.393C46.003,466.778,43.485,469.296,40.967,472.653z" fill="#FFFFFF"/>
		</g>
	</g>
</g>
<g>
</g>
<g>
</g>
<g>
</g>
<g>
</g>
<g>
</g>
<g>
</g>
<g>
</g>
<g>
</g>
<g>
</g>
<g>
</g>
<g>
</g>
<g>
</g>
<g>
</g>
<g>
</g>
<g>
</g>
</svg>
